<svg xmlns="http://www.w3.org/2000/svg" version="1.1" xmlns:xlink="http://www.w3.org/1999/xlink" width="1.73in" height="2in"><svg version="1.1" x="0px" y="0px" width="1.73in" height="2in" viewBox="0 0 166.08 192" enable-background="new 0 0 170.08 170.08" xml:space="preserve" id="SvgjsSvg1288" sodipodi:docname="foco2.svg" inkscape:version="1.4.2 (ebf0e940, 2025-05-08)" xmlns:inkscape="http://www.inkscape.org/namespaces/inkscape" xmlns:sodipodi="http://sodipodi.sourceforge.net/DTD/sodipodi-0.dtd" xmlns="http://www.w3.org/2000/svg" xmlns:svg="http://www.w3.org/2000/svg"><defs id="SvgjsDefs1287"></defs><sodipodi:namedview id="SvgjsSodipodi:namedview1286" pagecolor="#ffffff" bordercolor="#000000" borderopacity="0.25" inkscape:showpageshadow="2" inkscape:pageopacity="0.0" inkscape:pagecheckerboard="0" inkscape:deskcolor="#d1d1d1" inkscape:zoom="1.309066" inkscape:cx="94.342073" inkscape:cy="179.5173" inkscape:current-layer="svg18" inkscape:document-units="in"></sodipodi:namedview>

<g id="SvgjsG1285" transform="matrix(1.1288872,0,0,1.1288872,-12.960002,-3.0444e-6)" style="display:inline" inkscape:label="foco2">
	<polygon fill="#802321" points="85.039,170.079 11.551,127.555 11.551,42.506 85.039,0 158.528,42.506 158.528,127.555 " id="SvgjsPolygon1284" inkscape:label="hex"></polygon>
	<path fill-rule="evenodd" clip-rule="evenodd" fill="#ee9a6e" d="m 75.93,156.325 c -8.525,-1.513 -15.893,-8.669 -17.864,-17.186 -1.332,-5.75 -0.772,-11.261 2.057,-16.518 0.857,-1.594 1.607,-3.249 2.328,-4.907 2.26,-5.192 2.715,-10.394 0,-15.665 0.253,0.164 0.52,0.308 0.757,0.491 3.081,2.379 4.907,5.485 5.637,9.269 0.21,1.087 0.493,2.216 1.024,3.174 1.152,2.075 3.446,2.185 4.982,0.36 1.104,-1.307 1.305,-2.826 0.922,-4.4 -0.512,-2.104 -1.245,-4.157 -1.711,-6.27 -2.577,-11.68 3.783,-23.573 14.933,-28.017 0.391,-0.156 0.793,-0.286 1.213,-0.435 -3.885,6.562 -3.119,12.937 0.373,19.223 1.958,3.522 4.762,6.402 7.548,9.288 2.629,2.724 5.407,5.338 7.769,8.278 6.762,8.42 8.625,17.871 4.948,28.035 -2.588,7.155 -7.981,12.04 -14.654,15.674 2.781,-4.079 4.131,-8.534 3.683,-13.42 -0.44,-4.818 -2.229,-9.068 -5.916,-12.442 0.257,1.006 0.581,2 0.754,3.02 0.303,1.785 0.317,3.556 -0.978,5.043 -1.013,1.163 -2.25,1.937 -3.864,1.471 -1.604,-0.461 -2.334,-1.758 -2.481,-3.268 -0.13,-1.32 -0.028,-2.672 0.078,-4.001 0.526,-6.528 -1.083,-12.468 -4.953,-17.802 -0.084,-0.113 -0.191,-0.213 -0.43,-0.474 0.068,0.355 0.078,0.534 0.136,0.692 2.234,6.052 1.354,11.583 -2.871,16.537 -1.18,1.383 -2.485,2.664 -3.642,4.065 -4.751,5.766 -4.829,13.616 -0.235,19.552 0.129,0.171 0.25,0.347 0.457,0.633 z" id="SvgjsPath1283" inkscape:label="icon"></path>
	<g id="SvgjsG1282" inkscape:label="text">
		<path fill="#fefefe" d="m 46.465,40.085 v 5.34 H 35.318 v 5.769 h 8.341 v 5.184 H 35.318 V 67.447 H 28.653 V 40.085 Z" id="SvgjsPath1281"></path>
		<path fill="#fefefe" d="m 55.098,66.395 c -1.702,-0.909 -3.04,-2.208 -4.015,-3.898 -0.974,-1.688 -1.461,-3.664 -1.461,-5.924 0,-2.234 0.493,-4.203 1.481,-5.905 0.987,-1.702 2.339,-3.007 4.054,-3.917 1.715,-0.909 3.638,-1.364 5.769,-1.364 2.13,0 4.054,0.455 5.769,1.364 1.715,0.91 3.066,2.216 4.054,3.917 0.987,1.702 1.481,3.67 1.481,5.905 0,2.235 -0.5,4.204 -1.5,5.905 -1,1.702 -2.365,3.008 -4.093,3.917 -1.728,0.91 -3.658,1.364 -5.788,1.364 -2.133,0 -4.049,-0.455 -5.751,-1.364 z m 9.004,-5.808 c 0.896,-0.936 1.345,-2.273 1.345,-4.015 0,-1.741 -0.436,-3.079 -1.306,-4.015 -0.871,-0.936 -1.943,-1.403 -3.216,-1.403 -1.3,0 -2.377,0.461 -3.235,1.383 -0.857,0.923 -1.287,2.268 -1.287,4.034 0,1.741 0.422,3.079 1.267,4.015 0.844,0.936 1.903,1.403 3.176,1.403 1.274,0.001 2.36,-0.467 3.256,-1.402 z" id="SvgjsPath1280"></path>
		<path fill="#fefefe" d="m 77.373,46.497 c 1.169,-2.118 2.8,-3.768 4.892,-4.95 2.091,-1.182 4.463,-1.773 7.113,-1.773 3.248,0 6.029,0.857 8.342,2.572 2.313,1.715 3.859,4.054 4.639,7.016 H 95.03 C 94.485,48.218 93.712,47.348 92.712,46.75 91.71,46.153 90.573,45.854 89.3,45.854 c -2.053,0 -3.716,0.715 -4.989,2.144 -1.273,1.429 -1.91,3.339 -1.91,5.729 0,2.391 0.636,4.301 1.91,5.729 1.273,1.429 2.936,2.144 4.989,2.144 1.273,0 2.41,-0.298 3.412,-0.896 1,-0.597 1.773,-1.467 2.318,-2.611 h 7.328 c -0.779,2.962 -2.326,5.295 -4.639,6.997 -2.313,1.702 -5.094,2.553 -8.342,2.553 -2.65,0 -5.022,-0.591 -7.113,-1.773 -2.092,-1.182 -3.722,-2.826 -4.892,-4.931 -1.169,-2.104 -1.754,-4.508 -1.754,-7.21 0.001,-2.704 0.586,-5.114 1.755,-7.232 z" id="SvgjsPath1279"></path>
		<path fill="#fefefe" d="m 111.575,66.395 c -1.702,-0.909 -3.04,-2.208 -4.015,-3.898 -0.975,-1.688 -1.461,-3.664 -1.461,-5.924 0,-2.234 0.493,-4.203 1.48,-5.905 0.987,-1.702 2.339,-3.007 4.054,-3.917 1.715,-0.909 3.638,-1.364 5.769,-1.364 2.13,0 4.054,0.455 5.769,1.364 1.715,0.91 3.065,2.216 4.054,3.917 0.987,1.702 1.481,3.67 1.481,5.905 0,2.235 -0.501,4.204 -1.501,5.905 -1.001,1.702 -2.365,3.008 -4.093,3.917 -1.729,0.91 -3.657,1.364 -5.788,1.364 -2.131,0 -4.047,-0.455 -5.749,-1.364 z m 9.004,-5.808 c 0.896,-0.936 1.345,-2.273 1.345,-4.015 0,-1.741 -0.436,-3.079 -1.306,-4.015 -0.871,-0.936 -1.943,-1.403 -3.216,-1.403 -1.3,0 -2.378,0.461 -3.235,1.383 -0.857,0.923 -1.286,2.268 -1.286,4.034 0,1.741 0.422,3.079 1.267,4.015 0.845,0.936 1.903,1.403 3.177,1.403 1.274,0 2.358,-0.467 3.254,-1.402 z" id="SvgjsPath1278"></path>
	<path fill="#fefefe" d="m 132.374,49.447 c 1.528,-1.148 2.732,-2.09 3.613,-2.827 0.881,-0.737 1.625,-1.51 2.233,-2.317 0.608,-0.808 0.912,-1.595 0.912,-2.36 0,-0.581 -0.148,-1.035 -0.444,-1.361 -0.296,-0.326 -0.74,-0.489 -1.333,-0.489 -0.593,0 -1.057,0.202 -1.392,0.606 -0.335,0.404 -0.503,0.975 -0.503,1.711 h -3.858 c 0.031,-1.205 0.315,-2.211 0.854,-3.019 0.538,-0.808 1.247,-1.403 2.128,-1.786 0.881,-0.382 1.859,-0.574 2.936,-0.574 1.854,0 3.254,0.433 4.197,1.297 0.943,0.865 1.415,1.991 1.415,3.38 0,1.517 -0.569,2.923 -1.707,4.22 -1.139,1.296 -2.588,2.562 -4.35,3.794 h 6.313 v 2.956 h -11.739 v -2.7 c 0.53,-0.382 0.772,-0.559 0.725,-0.531 z" id="SvgjsPath1277" style="display:inline"></path></g>
	
	
	
	
	
	
	
</g>
</svg><style>@media (prefers-color-scheme: light) { :root { filter: none; } }
@media (prefers-color-scheme: dark) { :root { filter: none; } }
</style></svg>