<?xml version="1.0" encoding="utf-8"?>
<!-- Generator: Adobe Illustrator 16.0.0, SVG Export Plug-In . SVG Version: 6.00 Build 0)  -->
<!DOCTYPE svg PUBLIC "-//W3C//DTD SVG 1.1//EN" "http://www.w3.org/Graphics/SVG/1.1/DTD/svg11.dtd">
<svg version="1.1" xmlns="http://www.w3.org/2000/svg" xmlns:xlink="http://www.w3.org/1999/xlink" x="0px" y="0px"
	 width="170.08px" height="170.08px" viewBox="0 0 170.08 170.08" enable-background="new 0 0 170.08 170.08" xml:space="preserve">
<g id="Livello_1">
	<polygon fill="#802321" points="82.039,13.04 144.26,49.028 144.26,121.035 82.039,157.039 19.819,121.035 19.819,49.028 	"/>
	<g display="none">
		<path display="inline" fill="#FEFEFE" d="M47.692,47.209v3.729h-9.603v5.907h7.359v3.663h-7.359v9.735h-4.62V47.209H47.692z"/>
		<path display="inline" fill="#FEFEFE" d="M54.325,69.369c-1.408-0.781-2.514-1.886-3.316-3.316c-0.804-1.43-1.205-3.08-1.205-4.95
			c0-1.87,0.413-3.52,1.237-4.95c0.825-1.43,1.952-2.536,3.383-3.317c1.43-0.78,3.024-1.171,4.785-1.171
			c1.76,0,3.355,0.391,4.785,1.171c1.43,0.781,2.558,1.887,3.382,3.317c0.825,1.43,1.238,3.08,1.238,4.95
			c0,1.87-0.424,3.521-1.271,4.95c-0.847,1.43-1.992,2.536-3.432,3.316c-1.441,0.781-3.053,1.171-4.834,1.171
			C57.316,70.54,55.732,70.15,54.325,69.369z M61.436,65.904c0.737-0.407,1.325-1.018,1.766-1.832c0.44-0.814,0.66-1.804,0.66-2.97
			c0-1.737-0.457-3.074-1.37-4.009c-0.913-0.935-2.03-1.403-3.35-1.403s-2.425,0.468-3.316,1.403s-1.336,2.272-1.336,4.009
			c0,1.738,0.434,3.075,1.303,4.01s1.964,1.402,3.284,1.402C59.913,66.514,60.699,66.311,61.436,65.904z"/>
		<path display="inline" fill="#FEFEFE" d="M78.137,52.604c1.023-1.792,2.42-3.189,4.191-4.191c1.771-1.001,3.756-1.501,5.957-1.501
			c2.574,0,4.829,0.66,6.765,1.98c1.936,1.32,3.289,3.146,4.06,5.478h-5.313c-0.527-1.1-1.27-1.925-2.227-2.475
			c-0.957-0.549-2.063-0.825-3.316-0.825c-1.343,0-2.537,0.313-3.581,0.94c-1.045,0.627-1.859,1.513-2.442,2.656
			c-0.583,1.145-0.875,2.486-0.875,4.026c0,1.518,0.291,2.854,0.875,4.009c0.583,1.155,1.396,2.046,2.442,2.673
			c1.044,0.627,2.238,0.941,3.581,0.941c1.254,0,2.359-0.281,3.316-0.842s1.699-1.391,2.227-2.491h5.313
			c-0.771,2.354-2.118,4.186-4.042,5.494c-1.926,1.309-4.187,1.964-6.782,1.964c-2.2,0-4.186-0.5-5.957-1.502
			c-1.771-1-3.168-2.392-4.191-4.174c-1.023-1.782-1.535-3.806-1.535-6.072C76.602,56.428,77.114,54.398,78.137,52.604z"/>
		<path display="inline" fill="#FEFEFE" d="M106.434,69.369c-1.408-0.781-2.514-1.886-3.316-3.316
			c-0.803-1.43-1.204-3.08-1.204-4.95c0-1.87,0.413-3.52,1.237-4.95c0.825-1.43,1.952-2.536,3.383-3.317
			c1.43-0.78,3.024-1.171,4.785-1.171c1.76,0,3.354,0.391,4.785,1.171c1.43,0.781,2.557,1.887,3.382,3.317s1.237,3.08,1.237,4.95
			c0,1.87-0.424,3.521-1.27,4.95c-0.848,1.43-1.992,2.536-3.433,3.316c-1.441,0.781-3.053,1.171-4.835,1.171
			C109.426,70.54,107.842,70.15,106.434,69.369z M113.545,65.904c0.737-0.407,1.326-1.018,1.766-1.832
			c0.44-0.814,0.66-1.804,0.66-2.97c0-1.737-0.457-3.074-1.369-4.009c-0.913-0.935-2.029-1.403-3.35-1.403s-2.426,0.468-3.316,1.403
			s-1.336,2.272-1.336,4.009c0,1.738,0.434,3.075,1.303,4.01s1.964,1.402,3.283,1.402C112.021,66.514,112.809,66.311,113.545,65.904
			z"/>
		<path display="inline" fill="#FEFEFE" d="M123.711,56.215c1.23-1.026,2.213-1.882,2.943-2.569c0.73-0.686,1.34-1.401,1.828-2.145
			c0.486-0.744,0.73-1.475,0.73-2.193c0-0.654-0.154-1.167-0.461-1.539c-0.309-0.372-0.783-0.558-1.424-0.558
			c-0.643,0-1.137,0.215-1.482,0.645s-0.525,1.017-0.539,1.76h-2.615c0.051-1.539,0.51-2.706,1.375-3.501s1.965-1.193,3.299-1.193
			c1.463,0,2.584,0.388,3.367,1.164s1.174,1.799,1.174,3.068c0,1-0.27,1.956-0.809,2.867s-1.154,1.703-1.846,2.376
			c-0.693,0.673-1.598,1.485-2.713,2.434h5.676v2.232h-9.505v-2.001L123.711,56.215z"/>
	</g>
	<path fill-rule="evenodd" clip-rule="evenodd" fill="#EE9A6E" d="M74.327,146.378c-7.218-1.3-13.456-7.446-15.125-14.762
		c-1.128-4.938-0.654-9.673,1.741-14.188c0.726-1.369,1.36-2.791,1.971-4.215c1.914-4.46,2.299-8.928,0-13.455
		c0.214,0.141,0.44,0.265,0.641,0.422c2.608,2.043,4.154,4.712,4.772,7.961c0.178,0.934,0.417,1.903,0.867,2.726
		c0.976,1.782,2.918,1.877,4.218,0.311c0.934-1.123,1.105-2.429,0.78-3.779c-0.434-1.808-1.054-3.572-1.449-5.386
		c-2.181-10.033,3.204-20.249,12.645-24.065c0.33-0.134,0.671-0.246,1.026-0.374c-3.289,5.637-2.641,11.112,0.316,16.512
		c1.657,3.025,4.031,5.499,6.391,7.978c2.226,2.34,4.578,4.586,6.577,7.111c5.725,7.231,7.303,15.35,4.189,24.08
		c-2.191,6.146-6.758,10.341-12.407,13.463c2.354-3.504,3.497-7.33,3.118-11.527c-0.373-4.138-1.887-7.789-5.009-10.687
		c0.217,0.864,0.491,1.718,0.638,2.594c0.257,1.532,0.269,3.054-0.827,4.331c-0.857,0.999-1.905,1.664-3.272,1.264
		c-1.357-0.396-1.976-1.51-2.101-2.807c-0.11-1.135-0.024-2.296,0.066-3.438c0.445-5.607-0.917-10.708-4.194-15.29
		c-0.071-0.098-0.162-0.183-0.364-0.406c0.058,0.305,0.066,0.458,0.115,0.594c1.892,5.198,1.146,9.949-2.431,14.204
		c-0.999,1.188-2.104,2.289-3.083,3.492c-4.023,4.953-4.088,11.695-0.199,16.794C74.049,145.98,74.151,146.132,74.327,146.378z"/>
</g>
<g id="Livello_4">
	<g>
		<path fill="#FEFEFE" d="M48.902,47.111v3.729h-9.603v5.907h7.359v3.663h-7.359v9.735h-4.62V47.111H48.902z"/>
		<path fill="#FEFEFE" d="M56.36,69.271c-1.408-0.781-2.514-1.886-3.316-3.316c-0.804-1.43-1.205-3.08-1.205-4.95
			c0-1.87,0.413-3.52,1.237-4.95c0.825-1.43,1.952-2.536,3.383-3.317c1.43-0.78,3.024-1.171,4.785-1.171
			c1.76,0,3.355,0.391,4.785,1.171c1.43,0.781,2.558,1.887,3.382,3.317c0.825,1.43,1.238,3.08,1.238,4.95
			c0,1.87-0.424,3.521-1.271,4.95c-0.847,1.43-1.992,2.536-3.432,3.316c-1.441,0.781-3.053,1.171-4.834,1.171
			C59.352,70.442,57.768,70.052,56.36,69.271z M63.471,65.806c0.737-0.407,1.325-1.018,1.766-1.832c0.44-0.814,0.66-1.804,0.66-2.97
			c0-1.737-0.457-3.074-1.37-4.009c-0.913-0.935-2.03-1.403-3.35-1.403s-2.425,0.468-3.316,1.403s-1.336,2.272-1.336,4.009
			c0,1.738,0.434,3.075,1.303,4.01s1.964,1.402,3.284,1.402C61.948,66.416,62.734,66.213,63.471,65.806z"/>
		<path fill="#FEFEFE" d="M75.285,52.506c1.023-1.792,2.42-3.189,4.191-4.191c1.771-1.001,3.756-1.501,5.957-1.501
			c2.574,0,4.83,0.66,6.765,1.98c1.936,1.32,3.289,3.146,4.059,5.478h-5.313c-0.528-1.1-1.271-1.925-2.228-2.475
			c-0.957-0.549-2.063-0.825-3.316-0.825c-1.342,0-2.536,0.313-3.581,0.94c-1.045,0.627-1.859,1.513-2.442,2.656
			c-0.583,1.145-0.875,2.486-0.875,4.026c0,1.518,0.291,2.854,0.875,4.009c0.583,1.155,1.396,2.046,2.442,2.673
			c1.044,0.627,2.238,0.941,3.581,0.941c1.254,0,2.359-0.281,3.316-0.842s1.699-1.391,2.228-2.491h5.313
			c-0.77,2.354-2.117,4.186-4.042,5.494c-1.925,1.309-4.187,1.964-6.782,1.964c-2.2,0-4.186-0.5-5.957-1.502
			c-1.771-1-3.168-2.392-4.191-4.174c-1.023-1.782-1.535-3.806-1.535-6.072C73.75,56.33,74.262,54.3,75.285,52.506z"/>
		<path fill="#FEFEFE" d="M104.407,69.271c-1.408-0.781-2.514-1.886-3.316-3.316c-0.804-1.43-1.204-3.08-1.204-4.95
			c0-1.87,0.412-3.52,1.236-4.95c0.826-1.43,1.953-2.536,3.383-3.317c1.43-0.78,3.025-1.171,4.785-1.171s3.355,0.391,4.785,1.171
			c1.43,0.781,2.558,1.887,3.383,3.317c0.824,1.43,1.236,3.08,1.236,4.95c0,1.87-0.423,3.521-1.27,4.95
			c-0.848,1.43-1.992,2.536-3.432,3.316c-1.441,0.781-3.053,1.171-4.835,1.171C107.398,70.442,105.814,70.052,104.407,69.271z
			 M111.519,65.806c0.737-0.407,1.325-1.018,1.766-1.832s0.66-1.804,0.66-2.97c0-1.737-0.457-3.074-1.37-4.009
			c-0.912-0.935-2.029-1.403-3.35-1.403c-1.319,0-2.425,0.468-3.316,1.403c-0.891,0.935-1.336,2.272-1.336,4.009
			c0,1.738,0.434,3.075,1.303,4.01s1.965,1.402,3.284,1.402C109.995,66.416,110.781,66.213,111.519,65.806z"/>
	</g>
</g>
<g id="Livello_3">

	<path fill-rule="evenodd" clip-rule="evenodd" fill="#FEFEFE" d="M127.101,53.819c0.437,0.017,1.468-0.113,1.878-0.243
		c0.492-0.156,0.987-0.309,1.491-0.416c0.508-0.109,1.02-0.044,1.512,0.125c0.868,0.3,1.744,0.579,2.655,0.715
		c0.413,0.062,0.829,0.118,1.245,0.141c0.621,0.034,1.195-0.146,1.761-0.464c-0.03,0.064-0.048,0.107-0.071,0.145
		c-0.342,0.559-0.772,1.028-1.358,1.338c-0.531,0.278-1.096,0.306-1.673,0.221c-1.028-0.152-1.621,0.496-2.65,0.354
		c-0.732-0.102-1.46-0.999-2.192-0.817c-0.105,0.026-1.137,0.021-0.761,0.817c0.188,0.563,0.808,0.241,1.054,0.083
		c0.023,0.464-0.438,0.956-0.93,1.001c-0.357,0.032-0.691-0.061-1.014-0.188c-0.419-0.165-0.826-0.36-1.242-0.533
		c-0.107-0.044-0.229-0.08-0.345-0.08c-1.465-0.005-2.928-0.004-4.392-0.004c-0.06,0-0.117,0-0.194,0
		c0.041-0.321,0.202-1.55,0.237-1.867c0.015-0.123,2.766-2.188,3.965-3.268c0.635-0.571,1.227-1.188,1.661-1.932
		c0.254-0.434,0.411-0.896,0.423-1.406c0.025-1.073-0.761-1.268-1.437-1.112c-0.432,0.099-0.734,0.383-0.915,0.771
		c-0.123,0.266-0.356,0.953-0.396,0.954c-0.831,0.005-2.503-0.279-2.475-0.411c0.281-1.281,0.918-2.326,2.056-3.021
		c0.626-0.383,1.318-0.579,2.046-0.633c0.702-0.051,1.397-0.016,2.07,0.214c0.971,0.33,1.55,1.009,1.771,1.999
		c0.028,0.125,0.083,0.198,0.196,0.256c0.72,0.372,1.446,0.725,2.25,0.877c0.611,0.115,1.213,0.143,1.828-0.122
		c-0.032,0.054-0.656,0.764-0.971,1.063c-0.553,0.521-1.213,0.7-1.966,0.57c-0.482-0.083-0.967-0.161-1.453-0.198
		c-0.33-0.024-1.391,1.155-1.046,1.287c0.492,0.188,1.003,0.174,1.515,0.108c0.709-0.092,1.366-0.372,2.037-0.593
		c1.353-0.446,2.7-0.378,4.036,0.055c0.489,0.158,0.906,0.464,1.352,0.799c-0.2-0.025-0.357-0.048-0.516-0.063
		c-1.372-0.14-2.666,0.112-3.889,0.759c-0.709,0.375-1.43,0.732-2.167,1.047c-0.87,0.371-2.237,0.3-3.162,0.164
		C128.476,52.242,126.572,53.8,127.101,53.819z"/>
</g>
</svg>
