<?xml version="1.0" encoding="utf-8"?>
<!-- Generator: Adobe Illustrator 16.0.0, SVG Export Plug-In . SVG Version: 6.00 Build 0)  -->
<!DOCTYPE svg PUBLIC "-//W3C//DTD SVG 1.1//EN" "http://www.w3.org/Graphics/SVG/1.1/DTD/svg11.dtd">
<svg version="1.1" xmlns="http://www.w3.org/2000/svg" xmlns:xlink="http://www.w3.org/1999/xlink" x="0px" y="0px"
	 width="170.08px" height="170.08px" viewBox="0 0 170.08 170.08" enable-background="new 0 0 170.08 170.08" xml:space="preserve">
<g id="Livello_1" display="none">
	<polygon display="inline" fill="#802321" points="82.039,13.04 144.26,49.028 144.26,121.035 82.039,157.039 19.819,121.035 
		19.819,49.028 	"/>
	<path display="inline" fill-rule="evenodd" clip-rule="evenodd" fill="#EE9A6E" d="M74.327,145.395
		c-7.218-1.281-13.456-7.34-15.125-14.551c-1.128-4.868-0.654-9.534,1.741-13.984c0.726-1.35,1.36-2.751,1.971-4.155
		c1.914-4.396,2.299-8.8,0-13.263c0.214,0.139,0.44,0.261,0.641,0.416c2.608,2.014,4.154,4.645,4.772,7.848
		c0.178,0.92,0.417,1.876,0.867,2.687c0.976,1.757,2.918,1.85,4.218,0.306c0.934-1.106,1.105-2.394,0.78-3.726
		c-0.434-1.781-1.054-3.521-1.449-5.309c-2.181-9.89,3.204-19.959,12.645-23.721c0.33-0.132,0.671-0.242,1.026-0.369
		c-3.289,5.556-2.641,10.953,0.316,16.275c1.657,2.982,4.031,5.421,6.391,7.864c2.226,2.306,4.578,4.52,6.577,7.009
		c5.725,7.129,7.303,15.131,4.189,23.736c-2.191,6.058-6.758,10.193-12.407,13.271c2.354-3.454,3.497-7.226,3.118-11.362
		c-0.373-4.079-1.887-7.678-5.009-10.534c0.217,0.852,0.491,1.693,0.638,2.557c0.257,1.511,0.269,3.01-0.827,4.27
		c-0.857,0.984-1.905,1.64-3.272,1.245c-1.357-0.391-1.976-1.488-2.101-2.767c-0.11-1.118-0.024-2.263,0.066-3.388
		c0.445-5.527-0.917-10.556-4.194-15.072c-0.071-0.096-0.162-0.18-0.364-0.4c0.058,0.301,0.066,0.452,0.115,0.586
		c1.892,5.124,1.146,9.807-2.431,14.001c-0.999,1.171-2.104,2.256-3.083,3.442c-4.023,4.882-4.088,11.528-0.199,16.554
		C74.049,145.003,74.151,145.152,74.327,145.395z"/>
	<g id="Livello_4" display="inline">
		<g>
			<path fill="#FEFEFE" d="M49.38,46.979V51.5h-9.438v4.884h7.062v4.389h-7.062v9.372h-5.643V46.979H49.38z"/>
			<path fill="#FEFEFE" d="M56.69,69.254c-1.441-0.77-2.574-1.87-3.399-3.3c-0.825-1.43-1.238-3.102-1.238-5.016
				c0-1.892,0.418-3.558,1.254-5c0.835-1.44,1.98-2.546,3.432-3.316c1.452-0.77,3.08-1.155,4.884-1.155
				c1.804,0,3.432,0.385,4.884,1.155c1.452,0.771,2.596,1.876,3.432,3.316c0.836,1.441,1.254,3.108,1.254,5
				c0,1.893-0.424,3.559-1.271,5c-0.847,1.441-2.002,2.547-3.465,3.316c-1.463,0.771-3.097,1.155-4.9,1.155
				C59.753,70.409,58.13,70.024,56.69,69.254z M64.313,64.337c0.759-0.792,1.138-1.925,1.138-3.399c0-1.474-0.369-2.607-1.105-3.399
				c-0.737-0.792-1.645-1.188-2.722-1.188c-1.101,0-2.013,0.391-2.739,1.171c-0.726,0.781-1.089,1.92-1.089,3.416
				c0,1.474,0.357,2.607,1.072,3.399s1.611,1.188,2.69,1.188C62.635,65.525,63.554,65.129,64.313,64.337z"/>
			<path fill="#FEFEFE" d="M75.549,52.408c0.99-1.793,2.37-3.19,4.141-4.191c1.771-1,3.779-1.501,6.022-1.501
				c2.75,0,5.104,0.726,7.063,2.178c1.957,1.452,3.267,3.432,3.927,5.94h-6.204c-0.462-0.968-1.117-1.705-1.963-2.211
				c-0.848-0.506-1.811-0.759-2.888-0.759c-1.738,0-3.146,0.605-4.224,1.815c-1.079,1.21-1.617,2.827-1.617,4.851
				c0,2.024,0.539,3.642,1.617,4.851c1.078,1.21,2.485,1.815,4.224,1.815c1.078,0,2.041-0.252,2.888-0.759
				c0.846-0.506,1.501-1.243,1.963-2.211h6.204c-0.66,2.508-1.97,4.483-3.927,5.923c-1.959,1.441-4.313,2.162-7.063,2.162
				c-2.244,0-4.251-0.5-6.022-1.501c-1.771-1.001-3.151-2.393-4.141-4.175c-0.99-1.782-1.485-3.816-1.485-6.105
				C74.064,56.241,74.559,54.201,75.549,52.408z"/>
			<path fill="#FEFEFE" d="M104.506,69.254c-1.441-0.77-2.574-1.87-3.398-3.3c-0.825-1.43-1.238-3.102-1.238-5.016
				c0-1.892,0.418-3.558,1.255-5c0.835-1.44,1.979-2.546,3.432-3.316c1.452-0.77,3.08-1.155,4.884-1.155
				c1.805,0,3.432,0.385,4.885,1.155c1.451,0.771,2.596,1.876,3.432,3.316c0.836,1.441,1.254,3.108,1.254,5
				c0,1.893-0.424,3.559-1.271,5c-0.847,1.441-2.002,2.547-3.465,3.316c-1.464,0.771-3.097,1.155-4.9,1.155
				S105.947,70.024,104.506,69.254z M112.129,64.337c0.76-0.792,1.139-1.925,1.139-3.399c0-1.474-0.369-2.607-1.105-3.399
				c-0.737-0.792-1.645-1.188-2.723-1.188c-1.1,0-2.013,0.391-2.738,1.171c-0.727,0.781-1.09,1.92-1.09,3.416
				c0,1.474,0.357,2.607,1.072,3.399s1.611,1.188,2.69,1.188C110.451,65.525,111.37,65.129,112.129,64.337z"/>
		</g>
		<g>
			<path fill="#FEFEFE" d="M122.116,54.906c1.294-0.972,2.313-1.77,3.06-2.394c0.745-0.624,1.375-1.278,1.891-1.962
				c0.514-0.684,0.771-1.35,0.771-1.998c0-0.492-0.125-0.876-0.376-1.152s-0.627-0.414-1.128-0.414
				c-0.502,0-0.895,0.171-1.179,0.513c-0.284,0.342-0.426,0.825-0.426,1.449h-3.267c0.025-1.02,0.268-1.872,0.723-2.556
				c0.455-0.684,1.056-1.188,1.802-1.512c0.745-0.324,1.573-0.486,2.485-0.486c1.57,0,2.754,0.366,3.553,1.098
				s1.199,1.686,1.199,2.862c0,1.284-0.482,2.475-1.445,3.573c-0.965,1.098-2.191,2.169-3.684,3.213h5.346v2.502h-9.939v-2.286
				C121.951,55.032,122.156,54.882,122.116,54.906z"/>
		</g>
	</g>
</g>
<g id="Livello_3">
	<polygon fill="#802321" points="85.039,0 158.528,42.506 158.528,127.555 85.039,170.079 11.551,127.555 11.551,42.506 	"/>
	<path fill-rule="evenodd" clip-rule="evenodd" fill="#EE9A6E" d="M75.93,156.325c-8.525-1.513-15.893-8.669-17.864-17.186
		c-1.332-5.75-0.772-11.261,2.057-16.518c0.857-1.594,1.607-3.249,2.328-4.907c2.26-5.192,2.715-10.394,0-15.665
		c0.253,0.164,0.52,0.308,0.757,0.491c3.081,2.379,4.907,5.485,5.637,9.269c0.21,1.087,0.493,2.216,1.024,3.174
		c1.152,2.075,3.446,2.185,4.982,0.36c1.104-1.307,1.305-2.826,0.922-4.4c-0.512-2.104-1.245-4.157-1.711-6.27
		C71.485,92.993,77.845,81.1,88.995,76.656c0.391-0.156,0.793-0.286,1.213-0.435c-3.885,6.562-3.119,12.937,0.373,19.223
		c1.958,3.522,4.762,6.402,7.548,9.288c2.629,2.724,5.407,5.338,7.769,8.278c6.762,8.42,8.625,17.871,4.948,28.035
		c-2.588,7.155-7.981,12.04-14.654,15.674c2.781-4.079,4.131-8.534,3.683-13.42c-0.44-4.818-2.229-9.068-5.916-12.442
		c0.257,1.006,0.581,2,0.754,3.02c0.303,1.785,0.317,3.556-0.978,5.043c-1.013,1.163-2.25,1.937-3.864,1.471
		c-1.604-0.461-2.334-1.758-2.481-3.268c-0.13-1.32-0.028-2.672,0.078-4.001c0.526-6.528-1.083-12.468-4.953-17.802
		c-0.084-0.113-0.191-0.213-0.43-0.474c0.068,0.355,0.078,0.534,0.136,0.692c2.234,6.052,1.354,11.583-2.871,16.537
		c-1.18,1.383-2.485,2.664-3.642,4.065c-4.751,5.766-4.829,13.616-0.235,19.552C75.602,155.863,75.723,156.039,75.93,156.325z"/>
	<g>
		<path fill="#FEFEFE" d="M46.465,40.085v5.34H35.318v5.769h8.341v5.184h-8.341v11.069h-6.665V40.085H46.465z"/>
		<path fill="#FEFEFE" d="M55.098,66.395c-1.702-0.909-3.04-2.208-4.015-3.898c-0.974-1.688-1.461-3.664-1.461-5.924
			c0-2.234,0.493-4.203,1.481-5.905c0.987-1.702,2.339-3.007,4.054-3.917c1.715-0.909,3.638-1.364,5.769-1.364
			c2.13,0,4.054,0.455,5.769,1.364c1.715,0.91,3.066,2.216,4.054,3.917c0.987,1.702,1.481,3.67,1.481,5.905
			c0,2.235-0.5,4.204-1.5,5.905c-1,1.702-2.365,3.008-4.093,3.917c-1.728,0.91-3.658,1.364-5.788,1.364
			C58.716,67.759,56.8,67.304,55.098,66.395z M64.102,60.587c0.896-0.936,1.345-2.273,1.345-4.015c0-1.741-0.436-3.079-1.306-4.015
			c-0.871-0.936-1.943-1.403-3.216-1.403c-1.3,0-2.377,0.461-3.235,1.383c-0.857,0.923-1.287,2.268-1.287,4.034
			c0,1.741,0.422,3.079,1.267,4.015c0.844,0.936,1.903,1.403,3.176,1.403C62.12,61.99,63.206,61.522,64.102,60.587z"/>
		<path fill="#FEFEFE" d="M77.373,46.497c1.169-2.118,2.8-3.768,4.892-4.95c2.091-1.182,4.463-1.773,7.113-1.773
			c3.248,0,6.029,0.857,8.342,2.572c2.313,1.715,3.859,4.054,4.639,7.016H95.03c-0.545-1.144-1.318-2.014-2.318-2.612
			c-1.002-0.597-2.139-0.896-3.412-0.896c-2.053,0-3.716,0.715-4.989,2.144c-1.273,1.429-1.91,3.339-1.91,5.729
			c0,2.391,0.636,4.301,1.91,5.729c1.273,1.429,2.936,2.144,4.989,2.144c1.273,0,2.41-0.298,3.412-0.896
			c1-0.597,1.773-1.467,2.318-2.611h7.328c-0.779,2.962-2.326,5.295-4.639,6.997c-2.313,1.702-5.094,2.553-8.342,2.553
			c-2.65,0-5.022-0.591-7.113-1.773c-2.092-1.182-3.722-2.826-4.892-4.931c-1.169-2.104-1.754-4.508-1.754-7.21
			C75.619,51.025,76.204,48.615,77.373,46.497z"/>
		<path fill="#FEFEFE" d="M111.575,66.395c-1.702-0.909-3.04-2.208-4.015-3.898c-0.975-1.688-1.461-3.664-1.461-5.924
			c0-2.234,0.493-4.203,1.48-5.905c0.987-1.702,2.339-3.007,4.054-3.917c1.715-0.909,3.638-1.364,5.769-1.364
			c2.13,0,4.054,0.455,5.769,1.364c1.715,0.91,3.065,2.216,4.054,3.917c0.987,1.702,1.481,3.67,1.481,5.905
			c0,2.235-0.501,4.204-1.501,5.905c-1.001,1.702-2.365,3.008-4.093,3.917c-1.729,0.91-3.657,1.364-5.788,1.364
			S113.277,67.304,111.575,66.395z M120.579,60.587c0.896-0.936,1.345-2.273,1.345-4.015c0-1.741-0.436-3.079-1.306-4.015
			c-0.871-0.936-1.943-1.403-3.216-1.403c-1.3,0-2.378,0.461-3.235,1.383c-0.857,0.923-1.286,2.268-1.286,4.034
			c0,1.741,0.422,3.079,1.267,4.015s1.903,1.403,3.177,1.403S119.683,61.522,120.579,60.587z"/>
	</g>
	<g>
		<path fill="#FEFEFE" d="M132.374,49.447c1.528-1.148,2.732-2.09,3.613-2.827s1.625-1.51,2.233-2.317
			c0.608-0.808,0.912-1.595,0.912-2.36c0-0.581-0.148-1.035-0.444-1.361c-0.296-0.326-0.74-0.489-1.333-0.489
			s-1.057,0.202-1.392,0.606c-0.335,0.404-0.503,0.975-0.503,1.711h-3.858c0.031-1.205,0.315-2.211,0.854-3.019
			c0.538-0.808,1.247-1.403,2.128-1.786c0.881-0.382,1.859-0.574,2.936-0.574c1.854,0,3.254,0.433,4.197,1.297
			c0.943,0.865,1.415,1.991,1.415,3.38c0,1.517-0.569,2.923-1.707,4.22c-1.139,1.296-2.588,2.562-4.35,3.794h6.313v2.956h-11.739
			v-2.7C132.179,49.596,132.421,49.419,132.374,49.447z"/>
	</g>
	<g>
	</g>
	<g>
	</g>
	<g>
	</g>
	<g>
	</g>
	<g>
	</g>
	<g>
	</g>
</g>
</svg>
